<svg width="24" height="24" viewBox="0 0 24 24" fill="none" xmlns="http://www.w3.org/2000/svg">
<path d="M7.96477 10C7.88561 9.99994 7.80821 10.0234 7.74238 10.0673C7.67654 10.1113 7.62522 10.1738 7.59492 10.2469C7.56462 10.32 7.5567 10.4005 7.57216 10.4781C7.58762 10.5558 7.62576 10.6271 7.68177 10.683L11.7168 14.718C11.7918 14.793 11.8935 14.8351 11.9995 14.8351C12.1056 14.8351 12.2073 14.793 12.2823 14.718L16.3173 10.683C16.3733 10.6271 16.4114 10.5558 16.4269 10.4781C16.4423 10.4005 16.4344 10.32 16.4041 10.2469C16.3738 10.1738 16.3225 10.1113 16.2567 10.0673C16.1908 10.0234 16.1134 9.99994 16.0343 10H7.96477Z" fill="#1A1A1A"/>
</svg>
